# xmcd
#
# Track frame offsets:
# 150
# 14420
# 30039
# 42696
# 55505
# 66580
# 77226
# 92791
# 109119
# 125708
# 141009
# 158040
# 170161
# 187941
#
# Disc length: 2679 seconds
#
#
# Revision: 0
# Processed by: cddbd v1.5.1PL0 Copyright (c) Steve Scherf et al.
# Submitted via: FreeRIP 2.943 
#
DISCID=bc0a750e
DTITLE=Ricco and Léo - Jura de Amor
DYEAR=2005
DGENRE=Sertanejo
TTITLE0=De Segunda a Segunda
TTITLE1=Jura de Amor
TTITLE2=Tem Nada a Ver
TTITLE3=Vou Pagar Pra Ver
TTITLE4=Poeirão
TTITLE5=Baby
TTITLE6=Casar pra Que?
TTITLE7=Pra Sempre te Amar
TTITLE8=Adeus
TTITLE9=Aconteceu
TTITLE10=Rara Beleza
TTITLE11=Só com Você
TTITLE12=Alto Astral
TTITLE13=A Semente do Amor
EXTD=
EXTT0=
EXTT1=
EXTT2=
EXTT3=
EXTT4=
EXTT5=
EXTT6=
EXTT7=
EXTT8=
EXTT9=
EXTT10=
EXTT11=
EXTT12=
EXTT13=
PLAYORDER=
